<?xml version="1.0" standalone="no"?>
<!DOCTYPE svg PUBLIC "-//W3C//DTD SVG 20010904//EN"
 "http://www.w3.org/TR/2001/REC-SVG-20010904/DTD/svg10.dtd">
<svg version="1.0" xmlns="http://www.w3.org/2000/svg"
 width="64.000000pt" height="64.000000pt" viewBox="0 0 64.000000 64.000000"
 preserveAspectRatio="xMidYMid meet">
<metadata>
Created by potrace 1.16, written by Peter Selinger 2001-2019
</metadata>
<g transform="translate(0.000000,64.000000) scale(0.100000,-0.100000)"
fill="#000000" stroke="none">
<path d="M7 613 c-4 -3 -7 -17 -7 -30 0 -18 5 -23 25 -23 14 0 25 5 25 10 0 6
20 10 44 10 53 0 44 22 116 -270 28 -113 55 -209 61 -214 5 -6 9 -24 9 -42 0
-40 19 -56 62 -52 28 2 35 8 43 35 7 25 15 33 32 33 16 0 23 -6 23 -19 0 -50
77 -70 105 -28 12 19 13 30 4 55 l-11 32 -118 0 -118 0 -10 30 -11 29 121 3
121 3 48 125 c27 69 48 131 49 138 0 9 -47 12 -204 12 l-203 0 -13 62 c-19 88
-41 108 -123 108 -35 0 -67 -3 -70 -7z m563 -200 c0 -3 -16 -50 -37 -105 l-36
-98 -112 0 -113 0 -22 93 c-12 50 -23 98 -26 105 -3 9 36 12 171 12 96 0 175
-3 175 -7z"/>
</g>
</svg>
